<svg width="40" height="40" viewBox="0 0 40 40" fill="none" xmlns="http://www.w3.org/2000/svg">
    <rect x="2.9" y="6.9" width="33.2" height="25.5171" rx="3.1" stroke="white" stroke-width="1.8"/>
    <path d="M22.6748 20.3252V22.1707C22.6748 22.723 22.2271 23.1707 21.6748 23.1707H14C13.4477 23.1707 13 22.723 13 22.1707V16.4878C13 15.9355 13.4477 15.4878 14 15.4878H21.6748C22.2271 15.4878 22.6748 15.9355 22.6748 16.4878V18.4756M22.6748 20.3252L27.4996 23.0056C27.6329 23.0797 27.7967 22.9833 27.7967 22.8308V15.836C27.7967 15.6816 27.6293 15.5855 27.496 15.6632L22.6748 18.4756M22.6748 20.3252V18.4756" stroke="white" stroke-width="1.8"/>
</svg>
