<svg width="40" height="40" viewBox="0 0 40 40" fill="none" xmlns="http://www.w3.org/2000/svg">
    <path d="M30.5662 21.8108C30.5662 22.0619 30.3627 22.2654 30.1116 22.2654H28.5868C28.3357 22.2654 28.1322 22.4689 28.1322 22.7199V28.3636C28.1322 28.6146 27.9287 28.8181 27.6777 28.8181H26.0935C25.8424 28.8181 25.6389 28.6146 25.6389 28.3636V22.7199C25.6389 22.4689 25.4354 22.2654 25.1844 22.2654H24.4016C24.1505 22.2654 23.947 22.0619 23.947 21.8108V21.0598C23.947 20.8087 24.1505 20.6052 24.4016 20.6052H25.1844C25.4354 20.6052 25.6389 20.4017 25.6389 20.1507V15.0539C25.6389 14.8029 25.8424 14.5994 26.0935 14.5994H34.3265C34.5776 14.5994 34.7811 14.8029 34.7811 15.0539V16.137C34.7811 16.388 34.5776 16.5916 34.3265 16.5916H28.5868C28.3357 16.5916 28.1322 16.7951 28.1322 17.0461V20.1507C28.1322 20.4017 28.3357 20.6052 28.5868 20.6052H30.1116C30.3627 20.6052 30.5662 20.8087 30.5662 21.0598V21.8108Z" fill="white"/>
    <path d="M16.0651 20.5317C15.999 20.3534 15.829 20.2351 15.6389 20.2351H10.2376C10.0467 20.2351 9.87619 20.3544 9.81069 20.5337L8.67333 23.6475C8.60783 23.8268 8.43727 23.946 8.24637 23.946H7.26846C6.94909 23.946 6.7293 23.6253 6.84454 23.3275L11.994 10.0178C12.0617 9.84273 12.2301 9.72729 12.4179 9.72729H13.4573C13.6449 9.72729 13.8133 9.84261 13.8811 10.0176L19.0397 23.3272C19.1552 23.6251 18.9354 23.946 18.6159 23.946H17.6468C17.4566 23.946 17.2866 23.8277 17.2205 23.6495L16.0651 20.5317ZM10.7183 18.0808C10.6092 18.3775 10.8288 18.6921 11.1449 18.6921H14.739C15.0553 18.6921 15.2749 18.377 15.1654 18.0803L13.3648 13.1999C13.2185 12.8033 12.6575 12.8037 12.5117 13.2004L10.7183 18.0808Z" fill="white"/>
    <path d="M27.0987 30.8636L19.3024 8.13636M27.0987 30.8636L21.3421 37M27.0987 30.8636H19.3024M19.3024 8.13636L17.6187 3.22822C17.3666 2.49348 16.6757 2 15.8989 2H3.81818C2.81403 2 2 2.81403 2 3.81818V29.0455C2 30.0496 2.81403 30.8636 3.81818 30.8636H19.3024M19.3024 8.13636H35.1818C36.186 8.13636 37 8.95039 37 9.95455V35.1818C37 36.186 36.186 37 35.1818 37H21.3421M21.3421 37L19.3024 30.8636" stroke="white" stroke-width="1.8"/>
</svg>
