<svg width="40" height="40" viewBox="0 0 40 40" fill="none" xmlns="http://www.w3.org/2000/svg">
    <path d="M10.2469 37V34.9028C9.41681 32.7182 7.80896 27.7724 8.01868 25.4654C8.28083 22.5818 10.2469 14.062 10.2469 13.2755C10.2469 12.4891 10.378 7.50822 13.1306 8.1636M12.2131 18.3874C12.5189 13.4066 13.5051 3.96612 14.8346 3.31384C16.062 2.71161 16.6408 3.79444 16.6408 4.10028M16.0142 17.601C15.7084 12.3143 15.7259 1.79337 18.2425 2.00309C19.1194 2.00309 19.57 2.83527 19.778 4.10028M20.6018 18.3874C20.2086 17.5136 19.4746 14.927 19.6843 11.5715C19.8433 9.02769 20.0987 6.04993 19.778 4.10028M19.778 4.10028C20.4896 3.83813 21.9912 3.86435 22.3058 6.0664C22.699 8.81897 23.6166 22.8439 24.5341 24.1547M24.5341 24.1547C24.9273 24.1547 26.3691 22.4507 27.8109 21.0089C28.9644 19.8554 30.6509 19.4797 31.35 19.436C31.9616 19.6982 32.9491 20.4322 32.0053 21.2711C31.0616 22.1099 27.8546 26.6014 26.3691 28.7423C26.0633 29.6161 24.9797 31.5997 23.0923 32.5435M24.5341 24.1547C22.7515 25.8053 21.1698 25.9784 20.6018 25.8587M21.1261 37C20.9951 35.9077 21.2048 33.4872 23.0923 32.5435M23.0923 32.5435L20.6018 33.9853C15.3589 35.4533 16.2327 29.1792 17.325 25.8587M12.2131 23.5C14.0918 22.9757 18.2131 22.5 19.4222 20.8785" stroke="white" stroke-width="1.8" stroke-linecap="round"/>
</svg>
