<svg width="24" height="18" viewBox="0 0 24 18" fill="none" xmlns="http://www.w3.org/2000/svg">
<path d="M1 2C1 1.44772 1.44772 1 2 1H4H8H12H16H20H22C22.5523 1 23 1.44771 23 2V4V14V16C23 16.5523 22.5523 17 22 17H20H16H12H8H4H2C1.44771 17 1 16.5523 1 16V14V4V2Z" stroke="#B4B6BC" stroke-width="2"/>
<path d="M14.17 8.58268C14.1833 8.59038 14.1833 8.60962 14.17 8.61732L10.33 10.8343C10.3166 10.842 10.3 10.8324 10.3 10.817L10.3 6.38297C10.3 6.36758 10.3166 6.35796 10.33 6.36565L14.17 8.58268Z" fill="#B4B6BC" stroke="#B4B6BC" stroke-width="2"/>
</svg>


