<svg width="15" height="18" viewBox="0 0 15 18" fill="none" xmlns="http://www.w3.org/2000/svg">
<path d="M5.8261 17.5H5.3261V18H5.8261V17.5ZM12.8261 17.5V18H13.2598L13.3211 17.5707L12.8261 17.5ZM9.3261 8L8.8261 7.99999V8.0003L9.3261 8ZM1.3261 10L0.87889 10.2236L0.878894 10.2236L1.3261 10ZM11.3262 8.64541C11.3262 8.92156 11.55 9.14541 11.8262 9.14541C12.1023 9.14541 12.3262 8.92156 12.3262 8.64541H11.3262ZM8.82617 8.11252C8.82634 8.38867 9.05033 8.61239 9.32647 8.61222C9.60262 8.61206 9.82634 8.38806 9.82617 8.11192L8.82617 8.11252ZM6.8261 7.60614C6.8261 7.88229 7.04996 8.10614 7.3261 8.10614C7.60225 8.10614 7.8261 7.88229 7.8261 7.60614H6.8261ZM4.52775 11.6642C4.61846 11.9251 4.90343 12.063 5.16425 11.9723C5.42506 11.8815 5.56296 11.5966 5.47225 11.3358L4.52775 11.6642ZM9.32616 5.49977L9.82616 5.49978L9.32616 5.49977ZM13.9101 12.6797L13.4331 12.53L13.9101 12.6797ZM13.3211 17.5707C13.4545 16.6371 13.8289 14.6074 14.3872 12.8295L13.4331 12.53C12.8537 14.3752 12.4694 16.4613 12.3311 17.4293L13.3211 17.5707ZM12.3262 8.5V8.24997H11.3262V8.5H12.3262ZM13.8261 8.24997V10.2487H14.8261V8.24997H13.8261ZM11.3262 6.75V8.5H12.3262V6.75H11.3262ZM7.8261 7.50003C7.82614 6.96616 7.82616 6.14728 7.82617 5.49987L6.82617 5.49985C6.82616 6.14727 6.82614 6.96612 6.8261 7.49997L7.8261 7.50003ZM5.3261 11V2.25H4.3261V11H5.3261ZM6.8261 2.25V7.5H7.8261V2.25H6.8261ZM5.29427 10.8244C5.03536 10.134 4.56739 9.11627 3.99653 8.31087C3.71273 7.91047 3.38212 7.53169 3.01409 7.27863C2.64214 7.02287 2.17093 6.85801 1.66799 7.02566L1.98422 7.97434C2.08127 7.94199 2.22257 7.94796 2.4475 8.10262C2.67634 8.25998 2.92698 8.53119 3.18068 8.88913C3.68482 9.6004 4.11685 10.5327 4.35794 11.1756L5.29427 10.8244ZM1.66799 7.02566C1.26881 7.15872 0.969997 7.3906 0.774194 7.69536C0.583228 7.99259 0.511833 8.32501 0.501391 8.63306C0.480931 9.23662 0.690272 9.84637 0.87889 10.2236L1.77332 9.77639C1.6286 9.48696 1.48794 9.04671 1.50082 8.66694C1.50704 8.48333 1.54815 8.34075 1.61551 8.23589C1.67804 8.13857 1.7834 8.04128 1.98422 7.97434L1.66799 7.02566ZM0.878894 10.2236C1.13109 10.728 1.53442 11.5094 1.9262 12.2172C2.1219 12.5707 2.31714 12.9102 2.49068 13.1891C2.65465 13.4527 2.82614 13.7071 2.97262 13.8536L3.67973 13.1464C3.62621 13.0929 3.51019 12.9348 3.33978 12.6609C3.17893 12.4023 2.9929 12.0793 2.80109 11.7328C2.41785 11.0406 2.02114 10.272 1.77331 9.77639L0.878894 10.2236ZM5.8261 18H12.8261V17H5.8261V18ZM2.97262 13.8536C3.19383 14.0748 3.79969 14.7985 4.35254 15.5971C4.62712 15.9937 4.87913 16.3953 5.06042 16.7507C5.25282 17.1278 5.3261 17.3788 5.3261 17.5H6.3261C6.3261 17.1212 6.14939 16.6847 5.95119 16.2962C5.74186 15.8859 5.46264 15.4438 5.17474 15.0279C4.60262 14.2015 3.95852 13.4252 3.67973 13.1464L2.97262 13.8536ZM8.82616 5.49977C8.82615 6.05959 8.82614 6.68465 8.82613 7.16974C8.82612 7.41229 8.82611 7.61985 8.82611 7.76678C8.82611 7.84024 8.82611 7.89854 8.82611 7.93848C8.82611 7.95845 8.8261 7.97382 8.8261 7.98421C8.8261 7.9894 8.8261 7.99335 8.8261 7.99599C8.8261 7.99731 8.8261 7.99831 8.8261 7.99898C8.8261 7.99932 8.8261 7.99957 8.8261 7.99973C8.8261 7.99982 8.8261 7.99988 8.8261 7.99992C8.8261 7.99994 8.8261 7.99996 8.8261 7.99997C8.8261 7.99998 8.8261 7.99999 9.3261 8C9.8261 8.00001 9.8261 8.00001 9.8261 8C9.8261 7.99999 9.8261 7.99997 9.8261 7.99995C9.8261 7.99991 9.8261 7.99985 9.8261 7.99976C9.8261 7.99959 9.8261 7.99934 9.8261 7.99901C9.8261 7.99834 9.8261 7.99734 9.8261 7.99602C9.8261 7.99337 9.8261 7.98943 9.8261 7.98424C9.82611 7.97385 9.82611 7.95847 9.82611 7.93851C9.82611 7.89857 9.82611 7.84027 9.82611 7.7668C9.82611 7.61988 9.82612 7.41232 9.82613 7.16977C9.82614 6.68467 9.82615 6.05961 9.82616 5.49978L8.82616 5.49977ZM9.3261 8C9.8261 8.00002 9.8261 8.00001 9.8261 8.00001C9.8261 8 9.8261 8 9.8261 7.99999C9.8261 7.99997 9.8261 7.99994 9.8261 7.9999C9.8261 7.99983 9.8261 7.99972 9.8261 7.99957C9.8261 7.99927 9.8261 7.99882 9.8261 7.99823C9.8261 7.99704 9.8261 7.99528 9.8261 7.99294C9.8261 7.98827 9.82611 7.98135 9.82611 7.9723C9.82611 7.95422 9.82611 7.92767 9.82611 7.89384C9.82611 7.82617 9.82611 7.72935 9.82612 7.61271C9.82612 7.37945 9.82613 7.06696 9.82614 6.75005L8.82614 6.75002C8.82613 7.06693 8.82612 7.37942 8.82612 7.61268C8.82611 7.72932 8.82611 7.82614 8.82611 7.89381C8.82611 7.92764 8.82611 7.95419 8.82611 7.97227C8.8261 7.98131 8.8261 7.98824 8.8261 7.99291C8.8261 7.99524 8.8261 7.99701 8.8261 7.9982C8.8261 7.99879 8.8261 7.99924 8.8261 7.99954C8.8261 7.99968 8.8261 7.9998 8.8261 7.99987C8.8261 7.99991 8.8261 7.99994 8.8261 7.99996C8.8261 7.99997 8.8261 7.99997 8.8261 7.99998C8.8261 7.99998 8.8261 7.99998 9.3261 8ZM11.3262 8.5V8.64541H12.3262V8.5H11.3262ZM8.8261 8.0003L8.82617 8.11252L9.82617 8.11192L9.8261 7.9997L8.8261 8.0003ZM6.8261 7.5V7.60614H7.8261V7.5H6.8261ZM4.35385 11.1642L4.52775 11.6642L5.47225 11.3358L5.29836 10.8358L4.35385 11.1642ZM9.82614 6.75005C9.82615 6.33581 10.162 6 10.5762 6V5C9.60965 5 8.82617 5.78355 8.82614 6.75002L9.82614 6.75005ZM6.0761 1.5C6.49032 1.5 6.8261 1.83579 6.8261 2.25H7.8261C7.8261 1.2835 7.0426 0.5 6.0761 0.5V1.5ZM5.3261 2.25C5.3261 1.83579 5.66189 1.5 6.0761 1.5V0.5C5.10961 0.5 4.3261 1.2835 4.3261 2.25H5.3261ZM8.32617 5C8.60246 5 8.82617 5.22378 8.82616 5.49977L9.82616 5.49978C9.82617 4.6712 9.15445 4 8.32617 4V5ZM13.0761 7.5C13.4903 7.5 13.8261 7.83577 13.8261 8.24997H14.8261C14.8261 7.28349 14.0426 6.5 13.0761 6.5V7.5ZM7.82617 5.49987C7.82617 5.22381 8.04994 5 8.32617 5V4C7.49784 4 6.82618 4.67134 6.82617 5.49985L7.82617 5.49987ZM12.3262 8.24997C12.3262 7.83577 12.6619 7.5 13.0761 7.5V6.5C12.1097 6.5 11.3262 7.28349 11.3262 8.24997H12.3262ZM12.3262 6.75C12.3262 5.7835 11.5427 5 10.5762 5V6C10.9904 6 11.3262 6.33579 11.3262 6.75H12.3262ZM14.3872 12.8295C14.6443 12.0105 14.8261 11.1421 14.8261 10.2487H13.8261C13.8261 11.0085 13.6712 11.7717 13.4331 12.53L14.3872 12.8295Z" fill="#B4B6BC"/>
</svg>
